<svg height="3102" width="720" xmlns="http://www.w3.org/2000/svg">
<rect height="3102" fill="#555" width="720"></rect>
<text fill="#7f7" font-family="Courier New" font-size="12" xml:space="preserve">
<tspan x="10" y="26">18 megabytes installed</tspan>
<tspan x="10" y="42"></tspan>
<tspan x="10" y="58">node_modules</tspan>
<tspan x="10" y="74">└─┬ docpad@6.79.4 </tspan>
<tspan x="10" y="90">  ├─┬ ambi@2.5.0 </tspan>
<tspan x="10" y="106">  │ ├── editions@1.3.3 </tspan>
<tspan x="10" y="122">  │ └── typechecker@4.4.1 </tspan>
<tspan x="10" y="138">  ├── backbone@1.2.3 </tspan>
<tspan x="10" y="154">  ├─┬ bal-util@2.5.1 </tspan>
<tspan x="10" y="170">  │ └─┬ extract-opts@2.2.0 </tspan>
<tspan x="10" y="186">  │   └── typechecker@2.0.8 </tspan>
<tspan x="10" y="202">  ├─┬ caterpillar@2.0.9 </tspan>
<tspan x="10" y="218">  │ └─┬ readable-stream@1.1.14 </tspan>
<tspan x="10" y="234">  │   ├── core-util-is@1.0.2 </tspan>
<tspan x="10" y="250">  │   ├── inherits@2.0.3 </tspan>
<tspan x="10" y="266">  │   ├── isarray@0.0.1 </tspan>
<tspan x="10" y="282">  │   └── string_decoder@0.10.31 </tspan>
<tspan x="10" y="298">  ├── caterpillar-filter@2.0.3 </tspan>
<tspan x="10" y="314">  ├─┬ caterpillar-human@2.1.2 </tspan>
<tspan x="10" y="330">  │ ├── ansicolors@0.3.2 </tspan>
<tspan x="10" y="346">  │ └── ansistyles@0.1.3 </tspan>
<tspan x="10" y="362">  ├─┬ commander@2.9.0 </tspan>
<tspan x="10" y="378">  │ └── graceful-readlink@1.0.1 </tspan>
<tspan x="10" y="394">  ├── csextends@1.0.3 </tspan>
<tspan x="10" y="410">  ├─┬ cson@3.0.2 </tspan>
<tspan x="10" y="426">  │ ├── coffee-script@1.12.5 </tspan>
<tspan x="10" y="442">  │ ├── cson-parser@1.3.5 </tspan>
<tspan x="10" y="458">  │ ├── requirefresh@2.1.0 </tspan>
<tspan x="10" y="474">  │ └── safefs@4.1.0 </tspan>
<tspan x="10" y="490">  ├── eachr@2.0.4 </tspan>
<tspan x="10" y="506">  ├─┬ encoding@0.1.12 </tspan>
<tspan x="10" y="522">  │ └── iconv-lite@0.4.15 </tspan>
<tspan x="10" y="538">  ├── envfile@1.0.0 </tspan>
<tspan x="10" y="554">  ├─┬ event-emitter-grouped@2.4.3 </tspan>
<tspan x="10" y="570">  │ └─┬ ambi@2.2.0 </tspan>
<tspan x="10" y="586">  │   └── typechecker@2.0.8 </tspan>
<tspan x="10" y="602">  ├─┬ express@3.21.2 </tspan>
<tspan x="10" y="618">  │ ├── basic-auth@1.0.4 </tspan>
<tspan x="10" y="634">  │ ├── commander@2.6.0 </tspan>
<tspan x="10" y="650">  │ ├─┬ connect@2.30.2 </tspan>
<tspan x="10" y="666">  │ │ ├── basic-auth-connect@1.0.0 </tspan>
<tspan x="10" y="682">  │ │ ├─┬ body-parser@1.13.3 </tspan>
<tspan x="10" y="698">  │ │ │ ├── iconv-lite@0.4.11 </tspan>
<tspan x="10" y="714">  │ │ │ └─┬ raw-body@2.1.7 </tspan>
<tspan x="10" y="730">  │ │ │   ├── bytes@2.4.0 </tspan>
<tspan x="10" y="746">  │ │ │   └── iconv-lite@0.4.13 </tspan>
<tspan x="10" y="762">  │ │ ├── bytes@2.1.0 </tspan>
<tspan x="10" y="778">  │ │ ├─┬ compression@1.5.2 </tspan>
<tspan x="10" y="794">  │ │ │ ├─┬ accepts@1.2.13 </tspan>
<tspan x="10" y="810">  │ │ │ │ └── negotiator@0.5.3 </tspan>
<tspan x="10" y="826">  │ │ │ └── compressible@2.0.10 </tspan>
<tspan x="10" y="842">  │ │ ├── connect-timeout@1.6.2 </tspan>
<tspan x="10" y="858">  │ │ ├── cookie-parser@1.3.5 </tspan>
<tspan x="10" y="874">  │ │ ├─┬ csurf@1.8.3 </tspan>
<tspan x="10" y="890">  │ │ │ └─┬ csrf@3.0.6 </tspan>
<tspan x="10" y="906">  │ │ │   ├── rndm@1.2.0 </tspan>
<tspan x="10" y="922">  │ │ │   ├── tsscmp@1.0.5 </tspan>
<tspan x="10" y="938">  │ │ │   └─┬ uid-safe@2.1.4 </tspan>
<tspan x="10" y="954">  │ │ │     └── random-bytes@1.0.0 </tspan>
<tspan x="10" y="970">  │ │ ├─┬ errorhandler@1.4.3 </tspan>
<tspan x="10" y="986">  │ │ │ ├─┬ accepts@1.3.3 </tspan>
<tspan x="10" y="1002">  │ │ │ │ └── negotiator@0.6.1 </tspan>
<tspan x="10" y="1018">  │ │ │ └── escape-html@1.0.3 </tspan>
<tspan x="10" y="1034">  │ │ ├─┬ express-session@1.11.3 </tspan>
<tspan x="10" y="1050">  │ │ │ ├── crc@3.3.0 </tspan>
<tspan x="10" y="1066">  │ │ │ └─┬ uid-safe@2.0.0 </tspan>
<tspan x="10" y="1082">  │ │ │   └── base64-url@1.2.1 </tspan>
<tspan x="10" y="1098">  │ │ ├─┬ finalhandler@0.4.0 </tspan>
<tspan x="10" y="1114">  │ │ │ └── unpipe@1.0.0 </tspan>
<tspan x="10" y="1130">  │ │ ├─┬ http-errors@1.3.1 </tspan>
<tspan x="10" y="1146">  │ │ │ └── statuses@1.3.1 </tspan>
<tspan x="10" y="1162">  │ │ ├── morgan@1.6.1 </tspan>
<tspan x="10" y="1178">  │ │ ├─┬ multiparty@3.3.2 </tspan>
<tspan x="10" y="1194">  │ │ │ └── stream-counter@0.2.0 </tspan>
<tspan x="10" y="1210">  │ │ ├── on-headers@1.0.1 </tspan>
<tspan x="10" y="1226">  │ │ ├── pause@0.1.0 </tspan>
<tspan x="10" y="1242">  │ │ ├── qs@4.0.0 </tspan>
<tspan x="10" y="1258">  │ │ ├─┬ response-time@2.3.2 </tspan>
<tspan x="10" y="1274">  │ │ │ └── depd@1.1.0 </tspan>
<tspan x="10" y="1290">  │ │ ├─┬ serve-favicon@2.3.2 </tspan>
<tspan x="10" y="1306">  │ │ │ └── ms@0.7.2 </tspan>
<tspan x="10" y="1322">  │ │ ├─┬ serve-index@1.7.3 </tspan>
<tspan x="10" y="1338">  │ │ │ ├── batch@0.5.3 </tspan>
<tspan x="10" y="1354">  │ │ │ └── escape-html@1.0.3 </tspan>
<tspan x="10" y="1370">  │ │ ├─┬ serve-static@1.10.3 </tspan>
<tspan x="10" y="1386">  │ │ │ ├── escape-html@1.0.3 </tspan>
<tspan x="10" y="1402">  │ │ │ └─┬ send@0.13.2 </tspan>
<tspan x="10" y="1418">  │ │ │   ├── depd@1.1.0 </tspan>
<tspan x="10" y="1434">  │ │ │   ├── destroy@1.0.4 </tspan>
<tspan x="10" y="1450">  │ │ │   └── statuses@1.2.1 </tspan>
<tspan x="10" y="1466">  │ │ ├─┬ type-is@1.6.15 </tspan>
<tspan x="10" y="1482">  │ │ │ └── media-typer@0.3.0 </tspan>
<tspan x="10" y="1498">  │ │ └── vhost@3.0.2 </tspan>
<tspan x="10" y="1514">  │ ├── content-disposition@0.5.0 </tspan>
<tspan x="10" y="1530">  │ ├── content-type@1.0.2 </tspan>
<tspan x="10" y="1546">  │ ├── cookie@0.1.3 </tspan>
<tspan x="10" y="1562">  │ ├── cookie-signature@1.0.6 </tspan>
<tspan x="10" y="1578">  │ ├─┬ debug@2.2.0 </tspan>
<tspan x="10" y="1594">  │ │ └── ms@0.7.1 </tspan>
<tspan x="10" y="1610">  │ ├── depd@1.0.1 </tspan>
<tspan x="10" y="1626">  │ ├── escape-html@1.0.2 </tspan>
<tspan x="10" y="1642">  │ ├── etag@1.7.0 </tspan>
<tspan x="10" y="1658">  │ ├── fresh@0.3.0 </tspan>
<tspan x="10" y="1674">  │ ├── merge-descriptors@1.0.0 </tspan>
<tspan x="10" y="1690">  │ ├── methods@1.1.2 </tspan>
<tspan x="10" y="1706">  │ ├─┬ mkdirp@0.5.1 </tspan>
<tspan x="10" y="1722">  │ │ └── minimist@0.0.8 </tspan>
<tspan x="10" y="1738">  │ ├── parseurl@1.3.1 </tspan>
<tspan x="10" y="1754">  │ ├─┬ proxy-addr@1.0.10 </tspan>
<tspan x="10" y="1770">  │ │ ├── forwarded@0.1.0 </tspan>
<tspan x="10" y="1786">  │ │ └── ipaddr.js@1.0.5 </tspan>
<tspan x="10" y="1802">  │ ├── range-parser@1.0.3 </tspan>
<tspan x="10" y="1818">  │ ├─┬ send@0.13.0 </tspan>
<tspan x="10" y="1834">  │ │ ├── destroy@1.0.3 </tspan>
<tspan x="10" y="1850">  │ │ ├─┬ on-finished@2.3.0 </tspan>
<tspan x="10" y="1866">  │ │ │ └── ee-first@1.1.1 </tspan>
<tspan x="10" y="1882">  │ │ └── statuses@1.2.1 </tspan>
<tspan x="10" y="1898">  │ ├── utils-merge@1.0.0 </tspan>
<tspan x="10" y="1914">  │ └── vary@1.0.1 </tspan>
<tspan x="10" y="1930">  ├─┬ extendr@2.1.0 </tspan>
<tspan x="10" y="1946">  │ └── typechecker@2.0.8 </tspan>
<tspan x="10" y="1962">  ├─┬ extract-opts@3.3.1 </tspan>
<tspan x="10" y="1978">  │ ├── eachr@3.2.0 </tspan>
<tspan x="10" y="1994">  │ └── typechecker@4.4.1 </tspan>
<tspan x="10" y="2010">  ├── getmac@1.2.1 </tspan>
<tspan x="10" y="2026">  ├── hostenv@1.0.5 </tspan>
<tspan x="10" y="2042">  ├─┬ ignorefs@1.2.0 </tspan>
<tspan x="10" y="2058">  │ └── ignorepatterns@1.1.0 </tspan>
<tspan x="10" y="2074">  ├─┬ istextorbinary@1.0.2 </tspan>
<tspan x="10" y="2090">  │ ├── binaryextensions@1.0.1 </tspan>
<tspan x="10" y="2106">  │ └── textextensions@1.0.2 </tspan>
<tspan x="10" y="2122">  ├── jschardet@1.3.0 </tspan>
<tspan x="10" y="2138">  ├─┬ lazy-require@2.2.0 </tspan>
<tspan x="10" y="2154">  │ └─┬ safeps@6.4.0 </tspan>
<tspan x="10" y="2170">  │   ├── safefs@4.1.0 </tspan>
<tspan x="10" y="2186">  │   ├─┬ taskgroup@5.0.1 </tspan>
<tspan x="10" y="2202">  │   │ ├── eachr@3.2.0 </tspan>
<tspan x="10" y="2218">  │   │ └── extendr@3.2.2 </tspan>
<tspan x="10" y="2234">  │   └── typechecker@4.4.1 </tspan>
<tspan x="10" y="2250">  ├─┬ method-override@2.3.8 </tspan>
<tspan x="10" y="2266">  │ ├─┬ debug@2.6.3 </tspan>
<tspan x="10" y="2282">  │ │ └── ms@0.7.2 </tspan>
<tspan x="10" y="2298">  │ └── vary@1.1.1 </tspan>
<tspan x="10" y="2314">  ├── mime@1.3.4 </tspan>
<tspan x="10" y="2330">  ├─┬ progressbar@1.1.1 </tspan>
<tspan x="10" y="2346">  │ └── progress@1.1.8 </tspan>
<tspan x="10" y="2362">  ├─┬ promptly@0.2.1 </tspan>
<tspan x="10" y="2378">  │ └─┬ read@1.0.7 </tspan>
<tspan x="10" y="2394">  │   └── mute-stream@0.0.7 </tspan>
<tspan x="10" y="2410">  ├── query-engine@1.5.7 </tspan>
<tspan x="10" y="2426">  ├─┬ rimraf@2.6.1 </tspan>
<tspan x="10" y="2442">  │ └─┬ glob@7.1.1 </tspan>
<tspan x="10" y="2458">  │   ├── fs.realpath@1.0.0 </tspan>
<tspan x="10" y="2474">  │   ├─┬ inflight@1.0.6 </tspan>
<tspan x="10" y="2490">  │   │ └── wrappy@1.0.2 </tspan>
<tspan x="10" y="2506">  │   ├─┬ minimatch@3.0.3 </tspan>
<tspan x="10" y="2522">  │   │ └─┬ brace-expansion@1.1.7 </tspan>
<tspan x="10" y="2538">  │   │   ├── balanced-match@0.4.2 </tspan>
<tspan x="10" y="2554">  │   │   └── concat-map@0.0.1 </tspan>
<tspan x="10" y="2570">  │   ├── once@1.4.0 </tspan>
<tspan x="10" y="2586">  │   └── path-is-absolute@1.0.1 </tspan>
<tspan x="10" y="2602">  ├─┬ safefs@3.2.2 </tspan>
<tspan x="10" y="2618">  │ └── graceful-fs@4.1.11 </tspan>
<tspan x="10" y="2634">  ├── safeps@5.1.0 </tspan>
<tspan x="10" y="2650">  ├── scandirectory@2.5.0 </tspan>
<tspan x="10" y="2666">  ├── semver@5.3.0 </tspan>
<tspan x="10" y="2682">  ├─┬ superagent@1.8.5 </tspan>
<tspan x="10" y="2698">  │ ├── component-emitter@1.2.1 </tspan>
<tspan x="10" y="2714">  │ ├── cookiejar@2.0.6 </tspan>
<tspan x="10" y="2730">  │ ├── extend@3.0.0 </tspan>
<tspan x="10" y="2746">  │ ├─┬ form-data@1.0.0-rc3 </tspan>
<tspan x="10" y="2762">  │ │ ├── async@1.5.2 </tspan>
<tspan x="10" y="2778">  │ │ ├─┬ combined-stream@1.0.5 </tspan>
<tspan x="10" y="2794">  │ │ │ └── delayed-stream@1.0.0 </tspan>
<tspan x="10" y="2810">  │ │ └─┬ mime-types@2.1.15 </tspan>
<tspan x="10" y="2826">  │ │   └── mime-db@1.27.0 </tspan>
<tspan x="10" y="2842">  │ ├── formidable@1.0.17 </tspan>
<tspan x="10" y="2858">  │ ├── qs@2.3.3 </tspan>
<tspan x="10" y="2874">  │ ├── readable-stream@1.0.27-1 </tspan>
<tspan x="10" y="2890">  │ └── reduce-component@1.0.1 </tspan>
<tspan x="10" y="2906">  ├── taskgroup@4.3.1 </tspan>
<tspan x="10" y="2922">  ├── typechecker@2.1.0 </tspan>
<tspan x="10" y="2938">  ├── underscore@1.8.3 </tspan>
<tspan x="10" y="2954">  ├─┬ watchr@2.6.0 </tspan>
<tspan x="10" y="2970">  │ ├── eachr@3.2.0 </tspan>
<tspan x="10" y="2986">  │ ├── extendr@3.2.2 </tspan>
<tspan x="10" y="3002">  │ ├── safefs@4.1.0 </tspan>
<tspan x="10" y="3018">  │ ├── taskgroup@5.0.1 </tspan>
<tspan x="10" y="3034">  │ └── typechecker@4.4.1 </tspan>
<tspan x="10" y="3050">  └─┬ yamljs@0.2.9 </tspan>
<tspan x="10" y="3066">    └─┬ argparse@1.0.9 </tspan>
<tspan x="10" y="3082">      └── sprintf-js@1.0.3</tspan>
</text>
</svg>
